<?xml version="1.0" encoding="utf-8"?>
<!-- Generator: Adobe Illustrator 24.1.2, SVG Export Plug-In . SVG Version: 6.00 Build 0)  -->
<svg version="1.1" id="Layer_1" xmlns="http://www.w3.org/2000/svg" xmlns:xlink="http://www.w3.org/1999/xlink" x="0px" y="0px"
	 viewBox="0 0 369 369" style="enable-background:new 0 0 369 369;" xml:space="preserve">
<style type="text/css">
	.st0{fill:#FFFFFF;}
	.st1{fill:none;stroke:#6F572D;stroke-width:4;}
	.st2{fill:none;stroke:#6F572D;stroke-width:4;stroke-linecap:round;stroke-linejoin:round;}
	.st3{fill:none;stroke:#6F572D;stroke-width:4;stroke-linecap:round;stroke-linejoin:round;stroke-miterlimit:10;}
</style>
<g>
	<path class="st0" d="M104.6,156.6h11.3v45.2h-11.3v-4.8c-1.9,1.9-4.2,3.4-6.7,4.5c-2.3,0.9-4.8,1.4-7.2,1.4
		c-5.8,0-11.3-2.5-15.1-6.8c-4.3-4.6-6.6-10.6-6.4-16.9c0-7,2.1-12.7,6.2-17.1c3.8-4.3,9.3-6.7,15-6.7c2.6,0,5.2,0.5,7.6,1.5
		c2.5,1.1,4.7,2.7,6.6,4.6L104.6,156.6z M92.7,165.9c-3.3-0.1-6.5,1.3-8.7,3.7c-4.7,5.6-4.6,13.7,0.1,19.2c2.2,2.5,5.4,3.8,8.7,3.8
		c3.3,0.1,6.6-1.3,8.8-3.7c2.4-2.7,3.6-6.2,3.4-9.8c0.2-3.5-1.1-7-3.5-9.5C99.2,167.2,96,165.8,92.7,165.9z"/>
	<path class="st0" d="M159.3,162.9l-7,7c-2.8-2.8-5.4-4.2-7.8-4.2c-1.1-0.1-2.1,0.2-3,0.8c-0.7,0.4-1.1,1.2-1.1,2
		c0,0.6,0.3,1.2,0.7,1.7c1,0.9,2.2,1.6,3.4,2.1l4.1,2.1c4.4,2.2,7.4,4.4,9,6.6c3.9,5.6,3,13.3-2,17.9c-2.9,2.7-6.9,4-11.9,4
		c-6.2,0.2-12.1-2.7-15.7-7.7l7-7.6c1.3,1.5,2.9,2.8,4.7,3.8c1.4,0.9,3.1,1.4,4.7,1.4c1.3,0.1,2.6-0.3,3.6-1.1
		c0.8-0.6,1.3-1.5,1.4-2.5c0-1.7-1.6-3.4-4.9-5.1l-3.8-1.9c-7.3-3.7-11-8.3-11-13.8c0-3.5,1.5-6.9,4.1-9.1c2.9-2.6,6.7-3.9,10.6-3.8
		C150.2,155.5,155.7,158.2,159.3,162.9L159.3,162.9z"/>
	<path class="st0" d="M173.3,139.2h11.3v36l16.7-18.6h14.2l-19.4,21.6l21.8,23.6h-14.1L184.7,181v20.8h-11.3V139.2z"/>
	<path class="st0" d="M233,190c1.7,0,3.4,0.7,4.6,1.9c2.5,2.5,2.5,6.6,0,9.2c0,0,0,0,0,0c-2.5,2.6-6.6,2.6-9.2,0.1
		c-2.6-2.5-2.6-6.6-0.1-9.2C229.6,190.6,231.3,190,233,190L233,190z"/>
	<path class="st0" d="M259.3,138c1.9,0,3.8,0.8,5.1,2.2c1.4,1.4,2.2,3.3,2.1,5.2c0,1.9-0.7,3.8-2.1,5.2c-1.3,1.4-3.1,2.2-5,2.1
		c-1.9,0-3.8-0.8-5.2-2.2c-1.4-1.4-2.2-3.3-2.1-5.3c0-1.9,0.7-3.8,2.1-5.1C255.5,138.8,257.3,138,259.3,138z M253.6,156.6h11.3v45.2
		h-11.3V156.6z"/>
	<path class="st0" d="M280.8,140h11.3v16.6h6.7v9.8h-6.7v35.4h-11.3v-35.4H275v-9.8h5.8L280.8,140z"/>
</g>
<g>
	<circle class="st1" cx="327" cy="170.5" r="7"/>
	<circle class="st1" cx="39" cy="170.5" r="7"/>
</g>
<g>
	<path class="st0" d="M65.3,74.1l0.1,4c-2.5,0-5,1-6.7,2.9c-2.7,2.9-2.5,7.5,0.5,10.2c0,0,0.1,0.1,0.1,0.1c1,0.9,2.2,1.5,3.5,1.9
		c1.2,0.3,2.5,0.2,3.7-0.2c1.3-0.4,2.4-1.2,3.2-2.2c0.8-0.8,1.3-1.8,1.7-2.9c0.3-1.3,0.5-2.7,0.3-4l4-0.1c0.1,1.9-0.1,3.7-0.6,5.5
		c-0.6,1.6-1.4,3-2.6,4.2c-4.2,4.7-11.5,5.1-16.2,0.9c-1.5-1.3-2.5-3-3.2-4.8c-0.6-1.9-0.7-3.9-0.2-5.8c0.4-2,1.4-3.9,2.8-5.4
		C58.2,75.6,61.7,74.1,65.3,74.1L65.3,74.1z"/>
	<path class="st0" d="M75.8,59.3c2.3-1.9,5.3-2.7,8.2-2.4c3,0.3,5.8,1.8,7.6,4.2c1.9,2.3,2.8,5.3,2.5,8.3c-0.7,6.2-6.2,10.6-12.4,10
		c0,0,0,0,0,0c-3-0.3-5.7-1.8-7.5-4.2c-1.3-1.5-2.1-3.4-2.4-5.4C71.1,65.9,72.7,61.9,75.8,59.3L75.8,59.3z M78.3,62.5
		c-1.5,1.2-2.4,2.9-2.6,4.8c-0.2,2,0.5,3.9,1.7,5.4c1.3,1.8,3.4,2.8,5.6,2.8c1.7,0,3.3-0.5,4.6-1.6c1.5-1.2,2.4-2.9,2.5-4.8
		c0.3-4-2.6-7.5-6.6-8.1C81.7,60.7,79.8,61.2,78.3,62.5z"/>
	<path class="st0" d="M93.6,47.1l3.5-1.9l11.6,10.8l-2.9-15.6l3.5-1.9L123,55.5l-3.5,1.9l-8.6-10.8l2.6,14.1l-3.2,1.7l-10.5-9.7
		l4.5,13.1l-3.5,1.9L93.6,47.1z"/>
	<path class="st0" d="M121.8,32.9l3.8-1.3l9.5,12.7V28.5l3.8-1.3l10.3,19.3l-3.7,1.3l-6.5-12.2V50l-3.4,1.1l-8.6-11.5l2.1,13.6
		l-3.8,1.3L121.8,32.9z"/>
	<path class="st0" d="M149.6,24.7l4.1-0.7l2.3,13.8c0.1,0.9,0.3,1.7,0.7,2.5c0.3,0.5,0.7,0.8,1.2,1c0.6,0.2,1.2,0.3,1.8,0.1
		c0.7-0.1,1.3-0.4,1.8-0.8c0.4-0.4,0.7-0.9,0.9-1.4c0.1-1,0-2-0.2-2.9L159.9,23l4.1-0.7l2,12.7c0.3,1.5,0.4,3,0.4,4.5
		c-0.1,0.9-0.5,1.8-1,2.6c-0.5,0.8-1.2,1.6-2.1,2.1c-0.9,0.6-1.9,0.9-3,1.1c-1.4,0.3-2.9,0.1-4.2-0.4c-1.2-0.4-2.2-1.2-2.9-2.3
		c-0.9-1.6-1.4-3.4-1.6-5.3L149.6,24.7z"/>
	<path class="st0" d="M172.8,21.4l3.9-0.1l9.5,14L186,21.2l4.1-0.1l0.5,21.5l-3.9,0.1l-9.6-14l0.3,14.1l-4.1,0.1L172.8,21.4z"/>
	<path class="st0" d="M198.4,21.7l4.1,0.3l-1.9,21.5l-4.1-0.4L198.4,21.7z"/>
	<path class="st0" d="M229.5,30.5l-3.4,2.1c-1.2-2.2-3.4-3.8-5.8-4.3c-3.9-0.8-7.7,1.6-8.6,5.5c0,0.1,0,0.1,0,0.2
		c-0.3,1.3-0.2,2.7,0.2,3.9c0.4,1.2,1.1,2.3,2.1,3.1c1,0.9,2.2,1.4,3.5,1.7c1.1,0.2,2.2,0.2,3.3,0c1.3-0.4,2.6-1,3.7-1.7l2.2,3.4
		c-1.5,1.1-3.3,1.8-5.1,2.3c-1.6,0.3-3.3,0.3-4.9-0.1c-3-0.5-5.7-2.2-7.4-4.8c-1.7-2.5-2.2-5.7-1.5-8.6c0.4-2,1.2-3.8,2.6-5.3
		c1.3-1.5,3-2.5,4.9-3.1c1.9-0.6,4-0.7,6-0.3c1.7,0.3,3.4,1.1,4.8,2.1C227.4,27.5,228.6,28.9,229.5,30.5z"/>
	<path class="st0" d="M243.9,31.3l3.9,1.4l0.3,23.1l-4-1.5v-4.8l-8.2-3.1l-3.2,3.6l-4-1.5L243.9,31.3z M243.9,37.4l-5.3,5.9l5.4,2
		L243.9,37.4z"/>
	<path class="st0" d="M260,37.9l10.6,5.5l-1.9,3.6l-3.5-1.8l-8.1,15.5l-3.7-1.9l8.1-15.5l-3.4-1.8L260,37.9z"/>
	<path class="st0" d="M275.6,46.5l3.5,2.2l-11.4,18.3l-3.5-2.2L275.6,46.5z"/>
	<path class="st0" d="M294.5,59.1c2.3,1.8,3.8,4.6,4,7.5c0.3,3-0.6,6-2.5,8.4c-1.8,2.4-4.6,3.9-7.5,4.2c-6.2,0.6-11.7-3.8-12.4-10
		c0,0,0,0,0,0c-0.6-6.2,3.9-11.8,10.1-12.4C289.2,56.4,292.1,57.3,294.5,59.1L294.5,59.1z M292,62.2c-1.5-1.2-3.3-1.8-5.2-1.5
		c-2,0.2-3.7,1.3-4.9,2.9c-1.4,1.6-2,3.9-1.5,6c0.3,1.6,1.2,3.1,2.5,4.1c1.5,1.2,3.3,1.7,5.2,1.5c4-0.6,6.8-4.1,6.5-8.1
		C294.4,65.1,293.5,63.4,292,62.2z"/>
	<path class="st0" d="M308.7,72.3l2.6,2.9l-4.4,16.3l10.5-9.5l2.7,3l-16,14.4l-2.6-2.9l4.3-16.3l-10.5,9.5l-2.8-3.1L308.7,72.3z"/>
	<path class="st0" d="M46.2,216.8l1.1,4.4L24,227.1l-1.1-4.4L46.2,216.8z"/>
	<path class="st0" d="M49.7,239.1l-4-2.2c1.2-1.7,1.5-3.1,1.1-4.3c-0.2-0.5-0.5-1-1-1.2c-0.4-0.2-0.8-0.3-1.2-0.2
		c-0.4,0.1-0.7,0.4-0.9,0.8c-0.7,1.4-1.3,2.8-1.8,4.2c-0.8,2.1-1.3,3.4-1.5,3.9c-0.5,1-1.1,2-1.9,2.8c-0.7,0.7-1.5,1.2-2.5,1.5
		c-1.7,0.7-3.7,0.5-5.3-0.3c-1.7-0.9-3-2.5-3.6-4.4c-0.6-1.5-0.7-3.1-0.3-4.6c0.5-1.7,1.4-3.2,2.7-4.4l3.6,2.9
		c-1.6,1.8-2.2,3.4-1.7,4.8c0.2,0.7,0.7,1.3,1.3,1.6c0.5,0.4,1.2,0.4,1.8,0.2c0.6-0.2,1-0.6,1.3-1.1c0.6-1.1,1.1-2.2,1.5-3.4
		c0.7-2.3,1.7-4.4,3-6.4c0.7-1,1.7-1.8,2.9-2.2c1.5-0.6,3.3-0.4,4.7,0.4c1.5,0.8,2.7,2.2,3.2,3.8c0.4,1.1,0.5,2.3,0.4,3.5
		C51.1,236.3,50.6,237.8,49.7,239.1z"/>
	<path class="st0" d="M61.8,255.9l2.3,4l-13.8,8c-1.5,1-3.2,1.7-4.9,2.1c-1.1,0.2-2.2,0-3.1-0.5c-1-0.6-1.9-1.4-2.5-2.4
		c-1.3-2.3-1.5-5.2-0.4-7.6l4.3,1.3c-0.3,0.8-0.5,1.6-0.5,2.5c0,0.5,0.1,1,0.4,1.5c0.2,0.4,0.6,0.7,1.1,0.6c0.9-0.2,1.8-0.5,2.6-1.1
		L61.8,255.9z"/>
	<path class="st0" d="M66.6,264l2.8,3.7L57,277.1c-0.8,0.5-1.5,1.2-2,2c-0.3,0.5-0.4,1.1-0.3,1.7c0.1,0.7,0.4,1.3,0.8,1.9
		c0.4,0.6,1,1.1,1.7,1.3c0.6,0.2,1.2,0.3,1.9,0.1c1-0.4,2-1,2.8-1.7l11.9-9.1l2.8,3.7L65,285.7c-1.3,1.1-2.7,2-4.3,2.7
		c-1,0.4-2.1,0.5-3.1,0.4c-1.1-0.1-2.2-0.4-3.2-0.9c-1-0.6-1.9-1.4-2.6-2.4c-1-1.2-1.6-2.8-1.8-4.4c-0.2-1.4,0.1-2.8,0.7-4
		c1.2-1.7,2.6-3.2,4.4-4.4L66.6,264z"/>
	<path class="st0" d="M86.3,291.7l-4.5-0.3c0.3-2,0.1-3.5-0.8-4.3c-0.4-0.4-0.9-0.6-1.4-0.7c-0.4-0.1-0.9,0.1-1.2,0.4
		c-0.3,0.3-0.5,0.7-0.5,1.1c-0.1,1.5,0,3.1,0.2,4.6c0.2,2.3,0.3,3.7,0.3,4.2c0,1.1-0.2,2.2-0.5,3.3c-0.3,0.9-0.9,1.7-1.6,2.4
		c-1.3,1.3-3.1,2.1-4.9,2c-2-0.1-3.8-1-5.1-2.4c-1.1-1.1-1.9-2.5-2.3-4c-0.3-1.7-0.1-3.5,0.5-5.1l4.4,1.1c-0.7,2.3-0.5,4,0.6,5.1
		c0.5,0.5,1.2,0.9,1.9,0.9c0.6,0.1,1.2-0.1,1.7-0.5c0.4-0.4,0.7-1,0.7-1.6c0.1-1.2,0.1-2.4-0.1-3.7c-0.3-2.4-0.4-4.7-0.1-7.1
		c0.2-1.2,0.8-2.4,1.7-3.3c1.2-1.2,2.8-1.8,4.4-1.7c1.7,0.1,3.4,0.8,4.6,2.1c0.8,0.8,1.5,1.9,1.8,3
		C86.4,288.6,86.5,290.1,86.3,291.7z"/>
	<path class="st0" d="M90.2,290.8l10.4,8.4l-2.8,3.5l-3.4-2.8L82,315.2l-3.6-2.9L90.7,297l-3.3-2.7L90.2,290.8z"/>
	<path class="st0" d="M120.9,310.7c3,1.5,5.2,4.1,6.2,7.3c1.1,3.2,0.8,6.7-0.8,9.7c-1.4,3-4.1,5.3-7.3,6.3c-6.6,2.1-13.7-1.5-15.8-8
		c0,0,0-0.1,0-0.1c-2.1-6.6,1.5-13.8,8.2-15.9C114.5,309,117.9,309.2,120.9,310.7L120.9,310.7z M118.8,314.7c-1.9-1-4.1-1.2-6.1-0.5
		c-2.1,0.7-3.8,2.3-4.7,4.3c-1.2,2.1-1.3,4.7-0.3,6.9c0.7,1.7,2.1,3.1,3.7,3.9c1.9,1,4,1.1,6,0.4c4.2-1.5,6.5-6.1,5.2-10.4
		C122.1,317.4,120.7,315.7,118.8,314.7L118.8,314.7z"/>
	<path class="st0" d="M134.8,317.8l4.2,1.3l5.4,18.1l4.5-15.2l4.4,1.3l-6.9,23.1l-4.2-1.3l-5.4-18.1l-4.5,15.1l-4.4-1.3L134.8,317.8
		z"/>
	<path class="st0" d="M158,324.1l13,1.9l-0.6,4.4l-8.5-1.2l-0.6,4.3l8.5,1.2l-0.6,4.4l-8.5-1.2l-0.9,6.3l8.5,1.2l-0.6,4.5l-13-1.9
		L158,324.1z"/>
	<path class="st0" d="M206.6,329.5l-3,3.3c-2-2-4.7-3.1-7.6-3c-4.4,0.2-7.9,4-7.6,8.5c0,0.1,0,0.2,0,0.2c0.1,1.5,0.5,2.9,1.3,4.2
		c0.8,1.2,1.9,2.1,3.2,2.7c1.3,0.6,2.8,0.9,4.3,0.8c1.3-0.1,2.5-0.4,3.6-1c1.3-0.8,2.5-1.8,3.4-3l3.3,3c-1.3,1.6-3,3-4.8,4
		c-1.7,0.8-3.5,1.3-5.3,1.4c-3.4,0.4-6.8-0.7-9.5-2.9c-2.6-2.3-4.1-5.5-4.2-8.9c-0.2-2.2,0.2-4.5,1.2-6.5c1-2,2.5-3.6,4.4-4.8
		c1.9-1.3,4.1-2,6.4-2.2c2-0.1,4,0.2,5.8,0.9C203.5,326.9,205.2,328.1,206.6,329.5z"/>
	<path class="st0" d="M209.5,324.3l4.5-1l4.1,19.3l6.5-1.4l0.9,4.3l-11,2.3L209.5,324.3z"/>
	<path class="st0" d="M223.6,321l4.4-1.3l7,23l-4.4,1.3L223.6,321z"/>
	<path class="st0" d="M254.4,313.4l-1.7,4.1c-2.6-1.2-5.5-1.3-8.1-0.2c-4.1,1.8-6,6.5-4.3,10.6c0,0.1,0.1,0.1,0.1,0.2
		c0.6,1.4,1.5,2.6,2.7,3.5c1.1,0.9,2.5,1.4,3.9,1.5c2.8,0.2,5.5-0.9,7.4-2.9c1-1.2,1.7-2.5,2.2-4l4.1,1.7c-0.7,2-1.8,3.8-3.1,5.4
		c-1.3,1.3-2.8,2.4-4.5,3.1c-3.1,1.5-6.6,1.7-9.9,0.5c-3.2-1.2-5.7-3.7-7-6.9c-0.9-2-1.3-4.3-1.1-6.5c0.3-2.2,1.1-4.3,2.5-6
		c1.4-1.8,3.2-3.3,5.3-4.2C246.6,311.6,250.8,311.7,254.4,313.4L254.4,313.4z"/>
	<path class="st0" d="M255.4,307.8l3.9-2.5l4.5,7l1-10.5l4.6-3l-1.2,13.6l15,6.1l-4.6,3l-12.1-4.9l5.8,9l-3.9,2.5L255.4,307.8z"/>
	<path class="st0" d="M284.5,285.3l3.3-3.3l23.7,10.2l-3.3,3.4l-4.9-2.1l-6.9,7l2.2,4.9l-3.3,3.4L284.5,285.3z M290.7,288.1l3.7,8.1
		l4.5-4.6L290.7,288.1z"/>
	<path class="st0" d="M294.8,275l2.5-3.8l14.7,5.6l-10.4-12.1l2.1-3.2l15.2,4.9L308,255.1l2.5-3.8l17,17.9l-2.5,3.7l-15.4-5
		l10.5,12.3l-2.4,3.6L294.8,275z"/>
	<path class="st0" d="M314.2,242.3l1.8-4.3l25.8,0.9l-1.9,4.4l-5.3-0.2l-3.9,9l3.8,3.8l-1.9,4.4L314.2,242.3z M321,242.7l6.3,6.2
		l2.5-5.9L321,242.7z"/>
	<path class="st0" d="M319.8,228.5l1.2-4.8l9.5-2.2l-7.3-6.5l1.2-4.7l11.5,10.2l10.1,2.6l-1.1,4.5l-10.1-2.6L319.8,228.5z"/>
</g>
<g>
	<circle class="st1" cx="184.5" cy="184.5" r="182.5"/>
	<path class="st2" d="M296,119.1c-36.1-60.8-114.6-80.8-175.4-44.7C107,82.5,95,93,85.2,105.5"/>
	<path class="st3" d="M66.8,231.2c25.8,65.8,100,98.3,165.8,72.6c28.4-11.1,51.9-32,66.3-59"/>
</g>
</svg>
