<?xml version="1.0" encoding="utf-8"?>
<!-- Generator: Adobe Illustrator 24.1.2, SVG Export Plug-In . SVG Version: 6.00 Build 0)  -->
<svg version="1.1" id="Layer_1" xmlns="http://www.w3.org/2000/svg" xmlns:xlink="http://www.w3.org/1999/xlink" x="0px" y="0px"
	 viewBox="0 0 306 65.1" style="enable-background:new 0 0 306 65.1;" xml:space="preserve">
<style type="text/css">
	.st0{fill:#FFFFFF;}
	.st1{fill:none;stroke:#6F572D;stroke-width:4;}
</style>
<g>
	<path class="st0" d="M74.6,18.6h11.3v45.2H74.6V59c-1.9,1.9-4.2,3.4-6.7,4.5c-2.3,0.9-4.8,1.4-7.2,1.4c-5.8,0-11.3-2.5-15.1-6.8
		c-4.3-4.6-6.6-10.6-6.4-16.9c0-7,2.1-12.7,6.2-17.1c3.8-4.3,9.3-6.7,15-6.7c2.6,0,5.2,0.5,7.6,1.5c2.5,1.1,4.7,2.7,6.6,4.6V18.6z
		 M62.7,27.9c-3.3-0.1-6.5,1.3-8.7,3.7c-4.7,5.6-4.6,13.7,0.1,19.2c2.2,2.5,5.4,3.8,8.7,3.8c3.3,0.1,6.6-1.3,8.8-3.7
		c2.4-2.7,3.6-6.2,3.4-9.8c0.2-3.5-1.1-7-3.5-9.5C69.2,29.2,66,27.8,62.7,27.9z"/>
	<path class="st0" d="M129.3,24.9l-7,7c-2.8-2.8-5.4-4.2-7.8-4.2c-1.1-0.1-2.1,0.2-3,0.8c-0.7,0.4-1.1,1.2-1.1,2
		c0,0.6,0.3,1.2,0.7,1.7c1,0.9,2.2,1.6,3.4,2.1l4.1,2.1c4.4,2.2,7.4,4.4,9,6.6c3.9,5.6,3,13.3-2,17.9c-2.9,2.7-6.9,4-11.9,4
		c-6.2,0.2-12.1-2.7-15.7-7.7l7-7.6c1.3,1.5,2.9,2.8,4.7,3.8c1.4,0.9,3.1,1.4,4.7,1.4c1.3,0.1,2.6-0.3,3.6-1.1
		c0.8-0.6,1.3-1.5,1.4-2.5c0-1.7-1.6-3.4-4.9-5.1l-3.8-1.9c-7.3-3.7-11-8.3-11-13.8c0-3.5,1.5-6.9,4.1-9.1c2.9-2.6,6.7-3.9,10.6-3.8
		C120.2,17.5,125.7,20.2,129.3,24.9L129.3,24.9z"/>
	<path class="st0" d="M143.3,1.2h11.3v36l16.7-18.6h14.2l-19.4,21.6l21.8,23.6h-14.1L154.7,43v20.8h-11.3L143.3,1.2L143.3,1.2z"/>
	<path class="st0" d="M203,52c1.7,0,3.4,0.7,4.6,1.9c2.5,2.5,2.5,6.6,0,9.2l0,0c-2.5,2.6-6.6,2.6-9.2,0.1c-2.6-2.5-2.6-6.6-0.1-9.2
		C199.6,52.6,201.3,52,203,52L203,52z"/>
	<path class="st0" d="M229.3,0c1.9,0,3.8,0.8,5.1,2.2c1.4,1.4,2.2,3.3,2.1,5.2c0,1.9-0.7,3.8-2.1,5.2c-1.3,1.4-3.1,2.2-5,2.1
		c-1.9,0-3.8-0.8-5.2-2.2s-2.2-3.3-2.1-5.3c0-1.9,0.7-3.8,2.1-5.1C225.5,0.8,227.3,0,229.3,0z M223.6,18.6h11.3v45.2h-11.3
		L223.6,18.6L223.6,18.6z"/>
	<path class="st0" d="M250.8,2h11.3v16.6h6.7v9.8h-6.7v35.4h-11.3V28.4H245v-9.8h5.8V2z"/>
</g>
<g>
	<circle class="st1" cx="297" cy="32.5" r="7"/>
	<circle class="st1" cx="9" cy="32.5" r="7"/>
</g>
</svg>
