<svg class="logo-image" xmlns="http://www.w3.org/2000/svg" viewBox="0 0 413.32 493.67">
  <!-- ask.it -->
  <g class="logo-image__name" fill="#fff">
    <path d="M127.54,248.8h11.33V294H127.54v-4.77a22.37,22.37,0,0,1-6.66,4.54,18.52,18.52,0,0,1-7.23,1.39,20.07,20.07,0,0,1-15.13-6.79,23.64,23.64,0,0,1-6.39-16.87q0-10.45,6.18-17.14a19.7,19.7,0,0,1,15-6.68,18.94,18.94,0,0,1,7.62,1.54,20.87,20.87,0,0,1,6.6,4.6Zm-11.92,9.3a11.44,11.44,0,0,0-8.72,3.71A14.83,14.83,0,0,0,107,281a11.46,11.46,0,0,0,8.71,3.78,11.68,11.68,0,0,0,8.85-3.72A13.59,13.59,0,0,0,128,271.3a13.22,13.22,0,0,0-3.51-9.55A11.85,11.85,0,0,0,115.62,258.1Z"/>
    <path d="M182.21,255.11l-7,7q-4.27-4.23-7.76-4.23a4.87,4.87,0,0,0-3,.81,2.43,2.43,0,0,0-1.08,2,2.53,2.53,0,0,0,.68,1.69,12.84,12.84,0,0,0,3.39,2.09l4.15,2.08q6.56,3.23,9,6.6a13.74,13.74,0,0,1-2,17.93q-4.41,4-11.85,4A18.83,18.83,0,0,1,151,287.4l7-7.59a16.09,16.09,0,0,0,4.67,3.75A10.29,10.29,0,0,0,167.4,285a5.74,5.74,0,0,0,3.61-1.07,3.14,3.14,0,0,0,1.37-2.5q0-2.61-4.94-5.1l-3.82-1.91q-11-5.52-11-13.82a12,12,0,0,1,4.13-9.15,15,15,0,0,1,10.56-3.8,18.33,18.33,0,0,1,14.86,7.47Z"/>
    <path d="M196.3,231.37h11.33v36.05l16.68-18.62h14.23l-19.45,21.65L240.87,294H226.8l-19.17-20.81V294H196.3Z"/>
    <path d="M256,282.13a6.29,6.29,0,0,1,4.6,1.89,6.48,6.48,0,0,1,0,9.19,6.51,6.51,0,1,1-4.6-11.08Z"/>
    <path d="M282.22,230.21a6.94,6.94,0,0,1,5.12,2.16,7.17,7.17,0,0,1,2.13,5.23,7.09,7.09,0,0,1-2.11,5.16,6.84,6.84,0,0,1-5.05,2.14,6.94,6.94,0,0,1-5.15-2.18,7.24,7.24,0,0,1-2.14-5.29,7,7,0,0,1,2.11-5.1A6.91,6.91,0,0,1,282.22,230.21Zm-5.66,18.59h11.33V294H276.56Z"/>
    <path d="M303.8,232.16h11.33V248.8h6.73v9.76h-6.73V294H303.8v-35.4H298V248.8h5.81Z"/>
  </g>

  <g class="logo-image__name-circles" fill="none" stroke="#fff" stroke-width="4">
    <circle cx="349.96" cy="262.67" r="7"/>
    <circle cx="61.96" cy="262.67" r="7"/>
  </g>

  <g class="logo-image__slogan" fill="#fff">
    <!-- communication -->
    <path d="M88.25,166.3l.14,4a8.86,8.86,0,0,0-6.69,2.86,7.22,7.22,0,0,0,.6,10.33,7.68,7.68,0,0,0,3.48,1.85,6.75,6.75,0,0,0,3.72-.24,7.59,7.59,0,0,0,3.24-2.21A7.83,7.83,0,0,0,94.41,180a11.55,11.55,0,0,0,.35-4l4-.15a15.11,15.11,0,0,1-.59,5.52,12.14,12.14,0,0,1-2.55,4.22,11.47,11.47,0,0,1-19.38-3.91,10.78,10.78,0,0,1-.24-5.79,11.83,11.83,0,0,1,2.76-5.39,12.43,12.43,0,0,1,9.47-4.13Z"/>
    <path d="M98.78,151.49a10.71,10.71,0,0,1,8.2-2.36,11,11,0,0,1,7.63,4.21,10.84,10.84,0,0,1,2.49,8.25,11.25,11.25,0,0,1-12.45,9.95,11.19,11.19,0,0,1-7.51-4.18A11.34,11.34,0,0,1,94.73,162a11.32,11.32,0,0,1,4-10.51Zm2.49,3.15a6.81,6.81,0,0,0-2.61,4.78,7.3,7.3,0,0,0,1.74,5.4A6.89,6.89,0,0,0,106,167.6a7,7,0,0,0,4.58-1.61,6.65,6.65,0,0,0,2.54-4.76,7.6,7.6,0,0,0-6.55-8.09A6.74,6.74,0,0,0,101.27,154.64Z"/>
    <path d="M116.57,139.24l3.49-1.93,11.64,10.75-2.85-15.6,3.5-1.93,13.57,17.12-3.47,1.92-8.6-10.8,2.57,14.13-3.17,1.74-10.54-9.72,4.5,13.06-3.5,1.93Z"/>
    <path d="M144.72,125.12l3.79-1.27,9.5,12.68,0-15.85,3.79-1.27,10.25,19.3L168.31,140l-6.5-12.17,0,14.35-3.43,1.15-8.61-11.47,2.07,13.65-3.8,1.27Z"/>
    <path d="M172.55,116.9l4.06-.67L178.88,130a7.31,7.31,0,0,0,.73,2.46,2.54,2.54,0,0,0,1.22,1,3.25,3.25,0,0,0,1.8.15,3.36,3.36,0,0,0,1.76-.79,2.6,2.6,0,0,0,.86-1.43,9,9,0,0,0-.18-2.94l-2.18-13.24,4.06-.67L189,127.2a18.42,18.42,0,0,1,.37,4.51,6.35,6.35,0,0,1-1,2.63,6.49,6.49,0,0,1-2.07,2.1,8.06,8.06,0,0,1-3,1.07,7.62,7.62,0,0,1-4.2-.4,6.25,6.25,0,0,1-2.89-2.26,14.2,14.2,0,0,1-1.62-5.27Z"/>
    <path d="M195.78,113.62l3.93-.09,9.53,14-.31-14.18,4.1-.09.47,21.54-3.95.09L200,120.94l.31,14.13-4.1.09Z"/>
    <path d="M221.34,113.86l4.06.35-1.85,21.47-4.06-.35Z"/>
    <path d="M252.44,122.63l-3.36,2.12a8.86,8.86,0,0,0-5.84-4.34,7.21,7.21,0,0,0-8.62,5.72,7.66,7.66,0,0,0,.16,3.94,6.65,6.65,0,0,0,2.08,3.1,7.58,7.58,0,0,0,3.54,1.68,7.79,7.79,0,0,0,3.33,0,11.64,11.64,0,0,0,3.66-1.74l2.16,3.4a15.46,15.46,0,0,1-5.07,2.27,12.28,12.28,0,0,1-4.93-.08,11.13,11.13,0,0,1-7.43-4.75,11,11,0,0,1-1.52-8.64,11.23,11.23,0,0,1,2.56-5.32,10.81,10.81,0,0,1,4.89-3.12,11.79,11.79,0,0,1,6-.34,12.22,12.22,0,0,1,4.81,2.12A12.42,12.42,0,0,1,252.44,122.63Z"/>
    <path d="M266.88,123.52l3.89,1.45.26,23.08-4-1.48,0-4.75-8.24-3.07-3.19,3.55-4-1.48Zm0,6.08-5.29,5.93,5.4,2Z"/>
    <path d="M283,130.11l10.57,5.49-1.86,3.59-3.49-1.81-8.06,15.53-3.7-1.92,8.07-15.53-3.39-1.76Z"/>
    <path d="M298.6,138.68l3.45,2.16L290.62,159.1l-3.45-2.16Z"/>
    <path d="M317.47,151.29a10.76,10.76,0,0,1,4,7.51,11.06,11.06,0,0,1-2.5,8.36,10.88,10.88,0,0,1-7.53,4.18,11.25,11.25,0,0,1-12.37-10.06,11.33,11.33,0,0,1,18.35-10Zm-2.55,3.1a6.78,6.78,0,0,0-5.23-1.53,7.23,7.23,0,0,0-4.9,2.85,6.87,6.87,0,0,0-1.54,6,7,7,0,0,0,2.54,4.13,6.73,6.73,0,0,0,5.2,1.48,7.6,7.6,0,0,0,6.51-8.12A6.78,6.78,0,0,0,314.92,154.39Z"/>
    <path d="M331.63,164.49l2.64,2.93-4.37,16.34,10.54-9.49,2.74,3-16,14.42-2.64-2.93,4.34-16.3L318.37,182l-2.75-3.05Z"/>

    <!-- is just one click away -->
    <path d="M69.19,309l1.1,4.42-23.37,5.84-1.11-4.42Z"/>
    <path d="M72.69,331.3l-4-2.21q1.74-2.5,1.13-4.26a2.16,2.16,0,0,0-1-1.23,1.38,1.38,0,0,0-1.21-.18,1.86,1.86,0,0,0-.95.77,30.9,30.9,0,0,0-1.8,4.2c-.8,2.14-1.31,3.44-1.55,3.92a9.61,9.61,0,0,1-1.88,2.76,6.8,6.8,0,0,1-2.46,1.49,6.47,6.47,0,0,1-5.3-.31,7.46,7.46,0,0,1-3.6-4.39,8,8,0,0,1-.3-4.65,10,10,0,0,1,2.65-4.41L56,325.67q-2.43,2.7-1.68,4.83a3,3,0,0,0,1.31,1.64,2,2,0,0,0,1.77.23,2.75,2.75,0,0,0,1.34-1.11,18,18,0,0,0,1.48-3.36,26.86,26.86,0,0,1,3-6.44,6.3,6.3,0,0,1,2.9-2.24,5.65,5.65,0,0,1,4.69.37A6.6,6.6,0,0,1,74,323.44a7.45,7.45,0,0,1,.36,3.51A12.48,12.48,0,0,1,72.69,331.3Z"/>
    <path d="M84.74,348.06l2.3,4-13.85,8a16.62,16.62,0,0,1-4.94,2.15,5.1,5.1,0,0,1-3.12-.51,6,6,0,0,1-2.46-2.44,8.43,8.43,0,0,1-.36-7.62l4.33,1.32a8,8,0,0,0-.51,2.45,3.09,3.09,0,0,0,.37,1.51,1.2,1.2,0,0,0,1.09.64,6.46,6.46,0,0,0,2.55-1.06Z"/>
    <path d="M89.55,356.15l2.79,3.66L80,369.26a8.2,8.2,0,0,0-2,2,2.8,2.8,0,0,0-.35,1.74,3.53,3.53,0,0,0,.79,1.85,3.76,3.76,0,0,0,1.7,1.33,2.92,2.92,0,0,0,1.86.1,10.44,10.44,0,0,0,2.82-1.72l11.93-9.1,2.79,3.66L88,377.83a20.79,20.79,0,0,1-4.26,2.73,7.07,7.07,0,0,1-3.11.41,7.29,7.29,0,0,1-3.16-.94,9.05,9.05,0,0,1-2.62-2.41,8.42,8.42,0,0,1-1.81-4.35,7,7,0,0,1,.71-4,16,16,0,0,1,4.36-4.37Z"/>
    <path d="M109.27,383.87l-4.52-.29c.33-2,.06-3.46-.81-4.34a2.19,2.19,0,0,0-1.38-.7,1.38,1.38,0,0,0-1.18.36,1.81,1.81,0,0,0-.52,1.1,30.6,30.6,0,0,0,.18,4.57c.2,2.27.29,3.67.28,4.2a9.75,9.75,0,0,1-.51,3.31,6.69,6.69,0,0,1-1.58,2.39,6.42,6.42,0,0,1-4.92,2,7.43,7.43,0,0,1-5.14-2.42A8,8,0,0,1,86.9,390a10,10,0,0,1,.5-5.11L91.77,386q-1,3.48.56,5.09a3,3,0,0,0,1.89.92,2,2,0,0,0,1.69-.55,2.75,2.75,0,0,0,.73-1.59,16.56,16.56,0,0,0-.11-3.66,27.44,27.44,0,0,1-.08-7.1,6.37,6.37,0,0,1,1.66-3.27,5.68,5.68,0,0,1,4.39-1.68,6.61,6.61,0,0,1,4.6,2.08,7.32,7.32,0,0,1,1.83,3A12.31,12.31,0,0,1,109.27,383.87Z"/>
    <path d="M113.18,383l10.36,8.36-2.84,3.52-3.41-2.76L105,407.35l-3.62-2.92,12.29-15.23-3.33-2.69Z"/>
    <path d="M143.82,402.91a11.93,11.93,0,0,1,6.18,7.27,12.29,12.29,0,0,1-.79,9.71,12.14,12.14,0,0,1-7.26,6.33,12.56,12.56,0,0,1-15.86-8.13,12.65,12.65,0,0,1,17.73-15.18Zm-2.06,4a7.59,7.59,0,0,0-6.07-.46,8.11,8.11,0,0,0-4.7,4.25,7.71,7.71,0,0,0-.29,6.94,7.86,7.86,0,0,0,3.74,3.93,7.48,7.48,0,0,0,6,.4,8.48,8.48,0,0,0,5.24-10.39A7.54,7.54,0,0,0,141.76,406.89Z"/>
    <path d="M157.78,410l4.22,1.26,5.37,18.13,4.51-15.2,4.39,1.3-6.85,23.1-4.23-1.26-5.37-18.08-4.5,15.15-4.39-1.3Z"/>
    <path d="M181,416.29l13,1.88-.65,4.44-8.51-1.23-.62,4.31,8.51,1.23-.63,4.36-8.51-1.23-.91,6.27,8.51,1.24-.65,4.45-13-1.88Z"/>
    <path d="M229.55,421.67l-3,3.28A10,10,0,0,0,219,422a8.06,8.06,0,0,0-7.59,8.73,8.63,8.63,0,0,0,1.34,4.2,7.54,7.54,0,0,0,3.16,2.72,8.58,8.58,0,0,0,4.32.77,8.75,8.75,0,0,0,3.58-1,13,13,0,0,0,3.44-3l3.33,3a17,17,0,0,1-4.79,4,13.73,13.73,0,0,1-5.33,1.38A12.44,12.44,0,0,1,211,439.9,12.31,12.31,0,0,1,206.8,431a12.62,12.62,0,0,1,1.18-6.5,12.14,12.14,0,0,1,4.35-4.81,13.08,13.08,0,0,1,6.41-2.16,13.62,13.62,0,0,1,5.81.86A13.83,13.83,0,0,1,229.55,421.67Z"/>
    <path d="M232.5,416.49l4.49-.95,4.08,19.29,6.54-1.38.9,4.28-11,2.33Z"/>
    <path d="M246.52,413.2l4.35-1.32,7,23.05-4.36,1.32Z"/>
    <path d="M277.41,405.61l-1.7,4.09a10,10,0,0,0-8.13-.18,8.08,8.08,0,0,0-4.17,10.79,8.58,8.58,0,0,0,2.69,3.49,7.56,7.56,0,0,0,3.9,1.49,9.14,9.14,0,0,0,7.35-2.91,13.1,13.1,0,0,0,2.23-3.95l4.15,1.7a17,17,0,0,1-3.15,5.35,13.77,13.77,0,0,1-4.54,3.11,12.45,12.45,0,0,1-9.85.47,12.27,12.27,0,0,1-7-6.9,12.47,12.47,0,0,1-1.11-6.51,12.08,12.08,0,0,1,2.45-6,13.14,13.14,0,0,1,5.29-4.21,13.89,13.89,0,0,1,11.56.18Z"/>
    <path d="M278.32,399.93l3.88-2.52,4.53,7,1-10.53,4.61-3-1.19,13.6,15,6.15-4.56,3-12.06-4.93,5.83,9-3.89,2.53Z"/>
    <path d="M307.44,377.46l3.25-3.33,23.71,10.2-3.33,3.41-4.87-2.12-6.86,7,2.18,4.87-3.33,3.41Zm6.22,2.77,3.66,8.09,4.5-4.61Z"/>
    <path d="M317.71,367.2l2.5-3.75,14.72,5.65L324.54,357l2.11-3.17,15.22,4.92L331,347.31l2.5-3.75,17,17.9-2.45,3.66-15.41-5,10.53,12.27-2.42,3.62Z"/>
    <path d="M337.16,334.48l1.83-4.27,25.79.94-1.87,4.38-5.3-.22-3.86,9,3.79,3.75-1.87,4.39Zm6.8.35,6.34,6.22,2.53-5.93Z"/>
    <path d="M342.79,320.67l1.21-4.78,9.5-2.23-7.31-6.46,1.2-4.71,11.51,10.18L369,315.23l-1.13,4.48-10.11-2.56Z"/>
  </g>

  <g class="logo-image__decor-lines">
    <circle cx="207.46" cy="276.67" r="182.5" fill="none" stroke="#fff" stroke-width="4"/>
    <path d="M319,211.3a128,128,0,0,0-210.8-13.62" fill="none" stroke="#fff" stroke-linecap="round" stroke-linejoin="round" stroke-width="4"/>
    <path d="M89.76,323.4A128,128,0,0,0,321.9,337" fill="none" stroke="#fff" stroke-linecap="round" stroke-linejoin="round" stroke-miterlimit="10" stroke-width="4"/>
<!--    <path d="M405,214.67" fill="none" stroke="#fff" stroke-miterlimit="10" stroke-width="4"/>-->
<!--    <path d="M13,184.67" fill="none" stroke="#fff" stroke-miterlimit="10" stroke-width="4"/>-->
<!--    <path d="M402,184.67" fill="none" stroke="#fff" stroke-miterlimit="10" stroke-width="4"/>-->
<!--    <path d="M402,368.67" fill="none" stroke="#fff" stroke-miterlimit="10" stroke-width="4"/>-->
<!--    <path d="M13,368.67" fill="none" stroke="#fff" stroke-miterlimit="10" stroke-width="4"/>-->
    <path d="M403.31,187.84a215.09,215.09,0,0,0-391.75.1" fill="none" stroke="#fff" stroke-miterlimit="10" stroke-width="4"/>
    <path d="M11.17,364.52a215.09,215.09,0,0,0,392.17.91" fill="none" stroke="#fff" stroke-miterlimit="10" stroke-width="4"/>
    <circle cx="9" cy="195.71" r="7" fill="none" stroke="#fff" stroke-width="4"/>
    <circle cx="9" cy="357.09" r="7" fill="none" stroke="#fff" stroke-width="4"/>
    <circle cx="404.32" cy="195.71" r="7" fill="none" stroke="#fff" stroke-width="4"/>
    <circle cx="404.32" cy="357.09" r="7" fill="none" stroke="#fff" stroke-width="4"/>
  </g>

  <g class="logo-image__decor-dots" fill="#fff">
    <circle cx="207.46" cy="82.95" r="4"/><circle cx="192.27" cy="83.51" r="4"/><circle cx="177.18" cy="85.26" r="4"/><circle cx="162.26" cy="88.2" r="4"/><circle cx="147.63" cy="92.29" r="4"/><circle cx="133.36" cy="97.52" r="4"/><circle cx="119.54" cy="103.85" r="4"/><circle cx="106.26" cy="111.25" r="4"/><circle cx="93.61" cy="119.66" r="4"/><circle cx="81.65" cy="129.05" r="4"/><circle cx="70.47" cy="139.34" r="4"/><circle cx="60.13" cy="150.48" r="4"/><circle cx="50.69" cy="162.39" r="4"/><circle cx="42.22" cy="175.01" r="4"/><circle cx="34.77" cy="188.26" r="4"/><circle cx="28.37" cy="202.04" r="4"/><circle cx="23.08" cy="216.29" r="4"/><circle cx="18.93" cy="230.91" r="4"/><circle cx="15.93" cy="245.81" r="4"/><circle cx="14.11" cy="260.9" r="4"/><circle cx="13.48" cy="276.09" r="4"/><circle cx="14.04" cy="291.27" r="4"/><circle cx="15.8" cy="306.37" r="4"/><circle cx="18.73" cy="321.28" r="4"/><circle cx="22.82" cy="335.92" r="4"/><circle cx="28.05" cy="350.19" r="4"/><circle cx="34.39" cy="364.01" r="4"/><circle cx="41.78" cy="377.28" r="4"/><circle cx="50.2" cy="389.94" r="4"/><circle cx="59.58" cy="401.89" r="4"/><circle cx="69.88" cy="413.08" r="4"/><circle cx="81.01" cy="423.42" r="4"/><circle cx="92.93" cy="432.85" r="4"/><circle cx="105.55" cy="441.32" r="4"/><circle cx="118.79" cy="448.78" r="4"/><circle cx="132.58" cy="455.17" r="4"/><circle cx="146.83" cy="460.46" r="4"/><circle cx="161.45" cy="464.62" r="4"/><circle cx="176.35" cy="467.62" r="4"/><circle cx="191.43" cy="469.44" r="4"/><circle cx="206.62" cy="470.07" r="4"/><circle cx="221.81" cy="469.5" r="4"/><circle cx="236.9" cy="467.75" r="4"/><circle cx="251.82" cy="464.81" r="4"/><circle cx="266.45" cy="460.72" r="4"/><circle cx="280.72" cy="455.49" r="4"/><circle cx="294.54" cy="449.16" r="4"/><circle cx="307.82" cy="441.76" r="4"/><circle cx="320.47" cy="433.35" r="4"/><circle cx="332.43" cy="423.96" r="4"/><circle cx="343.61" cy="413.67" r="4"/><circle cx="353.95" cy="402.53" r="4"/><circle cx="363.39" cy="390.62" r="4"/><circle cx="371.86" cy="378" r="4"/><circle cx="379.31" cy="364.75" r="4"/><circle cx="385.71" cy="350.97" r="4"/><circle cx="391" cy="336.72" r="4"/><circle cx="395.15" cy="322.1" r="4"/><circle cx="398.15" cy="307.2" r="4"/><circle cx="399.97" cy="292.11" r="4"/><circle cx="400.6" cy="276.93" r="4"/><circle cx="400.04" cy="261.74" r="4"/><circle cx="398.28" cy="246.64" r="4"/><circle cx="395.35" cy="231.73" r="4"/><circle cx="391.26" cy="217.09" r="4"/><circle cx="386.03" cy="202.82" r="4"/><circle cx="379.69" cy="189" r="4"/><circle cx="372.3" cy="175.73" r="4"/><circle cx="363.88" cy="163.07" r="4"/><circle cx="354.5" cy="151.12" r="4"/><circle cx="344.2" cy="139.93" r="4"/><circle cx="333.07" cy="129.59" r="4"/><circle cx="321.15" cy="120.16" r="4"/><circle cx="308.53" cy="111.69" r="4"/><circle cx="295.29" cy="104.23" r="4"/><circle cx="281.5" cy="97.84" r="4"/><circle cx="267.25" cy="92.55" r="4"/><circle cx="252.63" cy="88.39" r="4"/><circle cx="237.73" cy="85.39" r="4"/><circle cx="222.65" cy="83.57" r="4"/>
  </g>

  <g class="logo-image__decor-crown" fill="#fff">
    <path d="M144.38,34c.59,2.35,1.19,4.69,1.77,7a190.84,190.84,0,0,1,121.56.26q.92-3.64,1.85-7.3A196.59,196.59,0,0,0,144.38,34Z"/>
    <path d="M265.44,40.1a10,10,0,1,0-12.29-3.63c-6.26,5.26-13.54,8-21,7.1-8.48-1-15.9-6.62-21.27-14.92a8.87,8.87,0,1,0,3.59-17.29,8,8,0,0,0,.64-3.18,8.18,8.18,0,0,0-16.36,0,8,8,0,0,0,.64,3.18A8.88,8.88,0,1,0,203,28.65c-5.36,8.31-12.79,13.87-21.26,14.92-7.42.89-14.7-1.85-21-7.1A10,10,0,1,0,148.5,40.1a35.77,35.77,0,0,1-9,11.46l3.42,13.53a201.19,201.19,0,0,1,128.16,0c1.13-4.51,2.28-9,3.42-13.53A36.14,36.14,0,0,1,265.44,40.1ZM156.73,54a4.41,4.41,0,1,1,4.41-4.41A4.41,4.41,0,0,1,156.73,54ZM207,48.83a4.41,4.41,0,1,1,4.41-4.39A4.39,4.39,0,0,1,207,48.83ZM255.75,54a4.41,4.41,0,1,1,4.42-4.41A4.4,4.4,0,0,1,255.75,54Z"/>
  </g>
</svg>