<svg xmlns="http://www.w3.org/2000/svg" viewBox="0 0 512 512">
  <g>
    <circle style="fill:#73d0f4;" cx="104.245" cy="379.15" r="27.732"/>
    <circle style="fill:none;" cx="210.381" cy="214.894" r="27.732"/>
    <circle style="fill:#73d0f4;" cx="314.841" cy="297.016" r="27.732"/>
    <circle style="fill:none;" cx="420.133" cy="123.33" r="27.732"/>
  </g>
  <path d="M104.251,415.316c19.945,0,36.172-16.226,36.172-36.172c0-9.662-3.815-18.443-10.008-24.938l67.976-105.2
    c3.757,1.326,7.793,2.054,11.997,2.054c8.46,0,16.244-2.928,22.412-7.813l49.181,38.67c-2.122,4.599-3.315,9.711-3.315,15.099
    c0,19.945,16.226,36.172,36.172,36.172c19.945,0,36.172-16.226,36.172-36.172c0-10.035-4.111-19.126-10.733-25.686l68.838-113.553
    c3.475,1.114,7.175,1.721,11.015,1.721c19.945,0,36.172-16.226,36.172-36.172s-16.226-36.172-36.172-36.172
    s-36.172,16.226-36.172,36.172c0,10.035,4.111,19.126,10.733,25.686l-68.838,113.553c-3.475-1.114-7.175-1.721-11.015-1.721
    c-8.461,0-16.246,2.928-22.413,7.813l-49.181-38.67c2.122-4.599,3.315-9.711,3.315-15.099c0-19.945-16.226-36.172-36.171-36.172
    c-19.945,0-36.172,16.226-36.172,36.172c0,9.662,3.815,18.443,10.009,24.938l-67.976,105.2c-3.757-1.326-7.793-2.054-11.998-2.054
    c-19.945,0-36.172,16.226-36.172,36.172C68.079,399.09,84.306,415.316,104.251,415.316z M420.127,104.036
    c10.637,0,19.293,8.654,19.293,19.293c0,10.637-8.655,19.293-19.293,19.293c-10.637,0-19.293-8.654-19.293-19.293
    C400.835,112.692,409.49,104.036,420.127,104.036z M334.128,297.017c0,10.637-8.655,19.293-19.293,19.293
    c-10.637,0-19.293-8.655-19.293-19.293c0-10.637,8.655-19.293,19.293-19.293C325.472,277.726,334.128,286.38,334.128,297.017z
     M210.386,195.596c10.637,0,19.292,8.654,19.292,19.293c0,10.637-8.653,19.293-19.292,19.293c-10.637,0-19.293-8.654-19.293-19.293
    C191.093,204.252,199.749,195.596,210.386,195.596z M104.251,359.853c10.637,0,19.293,8.655,19.293,19.293
    c0,10.637-8.654,19.293-19.293,19.293c-10.637,0-19.293-8.655-19.293-19.293C84.958,368.507,93.613,359.853,104.251,359.853z" fill="#3d6889"/>
</svg>
