<svg xmlns="http://www.w3.org/2000/svg" viewBox="0 0 512 512">
  <circle cx="256" cy="256" r="256" fill="#aead74"/>
  <path d="M321.062,134.438l-0.73-0.732c-1.06-0.947-2.452-1.495-3.988-1.495h-69.517l-4.756-4.754
    c-0.131-0.156-0.307-0.302-0.453-0.453c-0.253-0.287-0.532-0.55-0.814-0.814c-0.084-0.074-0.148-0.159-0.233-0.236
    c-0.056-0.049-0.123-0.084-0.182-0.133c-0.435-0.379-0.891-0.724-1.377-1.039c-0.212-0.148-0.422-0.284-0.64-0.415
    c-0.407-0.238-0.837-0.443-1.27-0.637c-0.284-0.131-0.566-0.269-0.863-0.374c-0.445-0.161-0.906-0.282-1.364-0.394
    c-0.294-0.074-0.581-0.169-0.883-0.225c-0.773-0.136-1.569-0.218-2.381-0.218c-6.108,0-11.3,4.096-12.913,9.692h-71.823
    c-3.4,0-6.216,2.813-6.216,6.216v125.837V383.27c0,1.498,0.548,2.888,1.462,3.948l124.511,124.513
    c115.351-4.721,210.98-85.724,237.814-193.93L321.062,134.438z" fill="#77763f"/>
  <path style="fill:#0575A5;" d="M146.888,132.227c-3.42,0-6.218,2.796-6.218,6.218v244.82c0,3.42,2.798,6.218,6.218,6.218h169.464
    c3.418,0,6.223-2.798,6.223-6.218v-244.82c0-3.423-2.806-6.218-6.223-6.218H146.888z"/>
  <polygon style="fill:#FFFFFF;" points="282.383,371.901 153.101,371.901 153.101,149.801 310.141,149.801 310.141,344.148 "/>
  <polygon style="fill:#CEE2F2;" points="282.383,371.901 282.383,344.148 310.141,344.148 "/>
  <path style="fill:#5D6D7E;" d="M245.071,135.99c0-7.437-6.019-13.478-13.45-13.478c-7.429,0-13.455,6.039-13.455,13.478h-17.032
    v27.622h60.974V135.99H245.071z M231.624,131.412c2.516,0,4.58,2.051,4.58,4.58c0,2.516-2.061,4.554-4.58,4.554
    c-2.534,0-4.58-2.038-4.58-4.554C227.044,133.463,229.087,131.412,231.624,131.412z"/>
  <path style="fill:#34495E;" d="M245.071,135.99c0-7.437-6.019-13.478-13.45-13.478c-7.429,0-13.455,6.039-13.455,13.478h-17.032
    v13.811h60.974V135.99H245.071z M231.624,131.412c2.516,0,4.58,2.051,4.58,4.58c0,2.516-2.061,4.554-4.58,4.554
    c-2.534,0-4.58-2.038-4.58-4.554C227.044,133.463,229.087,131.412,231.624,131.412z"/>
  <rect x="201.139" y="146.918" style="fill:#5D6D7E;" width="60.974" height="2.883"/>
  <rect x="201.139" y="149.811" style="fill:#34495E;" width="60.974" height="2.883"/>
  <g>
    <rect x="212.992" y="193.434" style="fill:#CEE2F2;" width="73.157" height="5.737"/>
    <rect x="212.992" y="223.437" style="fill:#CEE2F2;" width="73.157" height="5.737"/>
    <rect x="212.992" y="253.414" style="fill:#CEE2F2;" width="73.157" height="5.737"/>
    <rect x="212.992" y="283.392" style="fill:#CEE2F2;" width="73.157" height="5.737"/>
  </g>
  <g>
    <polygon style="fill:#FF8E31;" points="177.088,188.89 179.343,186.642 187.356,194.655 200.236,181.78 202.499,184.033
      187.356,199.171 	"/>
    <polygon style="fill:#FF8E31;" points="177.088,218.883 179.343,216.63 187.356,224.658 200.236,211.776 202.499,214.024
      187.356,229.164 	"/>
    <polygon style="fill:#FF8E31;" points="177.088,248.876 179.343,246.625 187.356,254.653 200.236,241.769 202.499,244.024
      187.356,259.154 	"/>
    <polygon style="fill:#FF8E31;" points="177.088,278.876 179.343,276.621 187.356,284.646 200.236,271.759 202.499,274.015
      187.356,289.149 	"/>
  </g>
  <polygon style="fill:#FFFFFF;" points="344.827,362.982 358.08,389.484 371.336,362.982 "/>
  <rect x="344.832" y="226.483" style="fill:#FF9D4D;" width="26.506" height="136.499"/>
  <g>
    <rect x="344.832" y="226.483" style="fill:#F28124;" width="6.63" height="136.499"/>
    <rect x="364.698" y="226.483" style="fill:#F28124;" width="6.628" height="136.499"/>
  </g>
  <g>
    <polygon style="fill:#E1EFFA;" points="344.827,362.982 351.457,362.982 358.08,389.484 	"/>
    <polygon style="fill:#E1EFFA;" points="371.336,362.982 364.708,362.982 358.08,389.484 	"/>
  </g>
  <polygon style="fill:#5D6D7E;" points="352.891,379.1 358.08,389.484 363.274,379.108 "/>
  <g>
    <polygon style="fill:#34495E;" points="352.891,379.1 358.08,389.484 355.484,379.1 	"/>
    <polygon style="fill:#34495E;" points="360.681,379.1 358.08,389.484 363.274,379.108 	"/>
  </g>
  <rect x="344.832" y="222.054" style="fill:#FFFFFF;" width="26.506" height="4.421"/>
  <g>
    <rect x="344.832" y="222.054" style="fill:#E1EFFA;" width="6.625" height="4.421"/>
    <rect x="364.698" y="222.054" style="fill:#E1EFFA;" width="6.63" height="4.421"/>
  </g>
  <path style="fill:#34495E;" d="M358.08,208.809c-7.316,0-13.253,5.937-13.253,13.253h26.506
    C371.336,214.748,365.394,208.809,358.08,208.809z"/>
  <path style="fill:#5E7E99;" d="M349.978,219.988c-0.325,0-0.648-0.072-0.945-0.228c-1.021-0.525-1.423-1.774-0.901-2.788
    c1.928-3.753,5.737-6.088,9.948-6.088c1.144,0,2.074,0.927,2.074,2.076c0,1.144-0.927,2.074-2.074,2.074
    c-2.647,0-5.048,1.467-6.257,3.835C351.452,219.579,350.728,219.988,349.978,219.988z"/>
</svg>
