<svg xmlns="http://www.w3.org/2000/svg" xmlns:xlink="http://www.w3.org/1999/xlink"><symbol id="facebook" viewBox="0 0 128 128"><g><path d="M64.046,114.027c-27.642,0-50.129-22.486-50.129-50.128c0-27.64,22.487-50.127,50.129-50.127s50.129,22.487,50.129,50.127   C114.175,91.541,91.688,114.027,64.046,114.027z M64.046,17.772c-25.436,0-46.129,20.692-46.129,46.127   c0,25.435,20.693,46.128,46.129,46.128s46.129-20.693,46.129-46.128C110.175,38.464,89.481,17.772,64.046,17.772z"/></g><path d="M69.979,91.465H55.405V65.898h-5.289v-12.81h5.289v-3.291c0-8.935,4.528-13.465,13.459-13.465h9.061v12.814h-6.41  c-0.921,0-1.301,0.113-1.427,0.165c-0.062,0.198-0.093,0.656-0.093,1.364l-0.009,2.412h8.213l-1.36,12.81h-6.859V91.465z   M59.405,87.465h6.574V61.899h7.262l0.511-4.811h-7.779l0.022-6.419c0-2.865,0.669-5.522,5.52-5.522h2.41v-4.814h-5.061  c-6.719,0-9.459,2.742-9.459,9.465v7.291h-5.289v4.811h5.289V87.465z"/></symbol><symbol id="label-decor" viewBox="0 0 20.812 97.59">
  <path d="M211.2,2100.73h1.6v94.4h-1.6v-94.4Zm0.8,76.8a10.4,10.4,0,1,1-10.4,10.4A10.4,10.4,0,0,1,212,2177.53Z" transform="translate(-201.594 -2100.72)"/>
</symbol><symbol id="linkedin" viewBox="0 0 128 128">
  <g>
    <path d="M64.044,114.135c-27.642,0-50.129-22.488-50.129-50.127c0-27.642,22.487-50.129,50.129-50.129 c27.643,0,50.131,22.487,50.131,50.129C114.175,91.646,91.687,114.135,64.044,114.135z M64.044,17.878 c-25.436,0-46.129,20.693-46.129,46.129c0,25.434,20.693,46.127,46.129,46.127c25.437,0,46.131-20.693,46.131-46.127 C110.175,38.572,89.48,17.878,64.044,17.878z"/>
  </g>
  <g>
    <path d="M49.675,82.566c-1.104,0-2-0.896-2-2V53.384c0-1.104,0.896-2,2-2s2,0.896,2,2v27.182 C51.675,81.67,50.779,82.566,49.675,82.566z"/>
    <path d="M62.634,82.566c-1.104,0-2-0.896-2-2V53.382c0-1.104,0.896-2,2-2s2,0.896,2,2v27.184 C64.634,81.67,63.738,82.566,62.634,82.566z"/>
    <path d="M80.489,82.566c-1.104,0-2-0.896-2-2V62.533c0-3.821-3.107-6.93-6.928-6.93s-6.928,3.108-6.928,6.93c0,1.104-0.896,2-2,2 s-2-0.896-2-2c0-6.026,4.902-10.93,10.928-10.93s10.928,4.903,10.928,10.93v18.034C82.489,81.67,81.594,82.566,80.489,82.566z"/>
    <circle cx="49.672" cy="43.517" r="2.509"/>
  </g>
</symbol><symbol id="login" viewBox="0 0 32 32"><title/><g id="Fill"><path d="M25,2H16V4h9a1,1,0,0,1,1,1V27a1,1,0,0,1-1,1H16v2h9a3,3,0,0,0,3-3V5A3,3,0,0,0,25,2Z"/><path d="M16,22.4l5-5a2,2,0,0,0,0-2.82l-5-5L14.55,11l4,4H4v2H18.59l-4,4Z"/></g></symbol><symbol id="pinterest" viewBox="0 0 128 128">
  <g>
    <path d="M63.999,114.176c-27.642,0-50.129-22.486-50.129-50.128c0-27.642,22.487-50.129,50.129-50.129s50.129,22.487,50.129,50.129 C114.128,91.689,91.641,114.176,63.999,114.176z M63.999,17.918c-25.436,0-46.129,20.693-46.129,46.129 c0,25.435,20.693,46.128,46.129,46.128s46.129-20.693,46.129-46.128C110.128,38.612,89.435,17.918,63.999,17.918z"/>
  </g>
  <g>
    <path d="M65.499,77.574c-2.467,0-4.856-0.803-6.438-1.336c-0.457-0.154-0.889-0.299-1.105-0.348 c-1.077-0.244-1.753-1.314-1.51-2.393s1.316-1.752,2.393-1.51c0.416,0.096,0.894,0.256,1.498,0.459 c1.414,0.477,3.352,1.127,5.163,1.127c8.415,0,13.624-8.109,13.624-15.625c0-8.322-6.834-15.623-14.624-15.623 c-7.885,0-15.624,8.233-15.624,16.623c0,1.104-0.896,2-2,2s-2-0.896-2-2c0-10.601,9.537-20.623,19.624-20.623 c10.096,0,18.624,8.986,18.624,19.623C83.123,68.771,75.217,77.574,65.499,77.574z"/>
    <path d="M52.875,92.457c-0.228,0-0.458-0.039-0.684-0.121c-1.038-0.379-1.573-1.525-1.196-2.564 c0.046-0.125,2.476-6.813,5.256-14.889c-4.195-3.236-5.064-8.084-2.352-13.493c2.332-4.649,8.401-10.8,11.499-9.604 c0.981,0.38,1.938,1.501,1.401,3.405c-3.505,12.442-11.96,35.715-12.045,35.948C54.459,91.951,53.691,92.457,52.875,92.457z M61.987,57.392c-2.214,1.997-4.983,5.385-5.55,8.815c-0.298,1.807,0.092,3.293,1.219,4.561 C59.207,66.186,60.761,61.446,61.987,57.392z"/>
  </g>
</symbol><symbol id="register" viewBox="0 0 1000 1000">
<metadata> Svg Vector Icons : http://www.onlinewebfonts.com/icon </metadata>
<g><path d="M108.1,949.3c-0.6,27.1-23,48.5-50.1,48c-27.1-0.6-48.5-23-48-50.1c5.4-255.2,259.2-418.6,490-418.6c236.2,0,484.6,163.4,490,418.6c0.5,27.1-21,49.5-48,50.1c-27.1,0.5-49.5-21-50.1-48C887.7,750.1,685.2,626.7,500,626.7C314,626.7,112.1,756.4,108.1,949.3"/><path d="M500,493c108.2,0,196.2-88,196.2-196.2c0-108.1-88-196.2-196.2-196.2c-108.1,0-196.1,88-196.1,196.2C303.9,405,391.8,493,500,493 M500,591.1c-162.5,0-294.2-131.7-294.2-294.2C205.8,134.4,337.5,2.7,500,2.7c162.5,0,294.3,131.7,294.3,294.2C794.2,459.4,662.5,591.1,500,591.1L500,591.1L500,591.1z"/></g>
</symbol><symbol id="send" viewBox="0 0 26 20">
  <path d="M1683.27,5644.61h-19.34a3.105,3.105,0,0,0-3.13,3.08v13.03a3.107,3.107,0,0,0,3.13,3.09h19.34a3.107,3.107,0,0,0,3.13-3.09V5647.7A3.114,3.114,0,0,0,1683.27,5644.61Zm1.7,16.11a1.688,1.688,0,0,1-1.7,1.68h-19.34a1.688,1.688,0,0,1-1.7-1.68V5647.7a1.694,1.694,0,0,1,1.7-1.68h19.34a1.694,1.694,0,0,1,1.7,1.68v13.02h0Zm-8.03-6.67,6.27-5.54a0.7,0.7,0,0,0,.05-0.99,0.723,0.723,0,0,0-1.01-.06l-8.64,7.64-1.68-1.48a0.02,0.02,0,0,1-.01-0.02,1.059,1.059,0,0,1-.12-0.1l-6.85-6.04a0.722,0.722,0,0,0-1.01.06,0.689,0.689,0,0,0,.05.99l6.34,5.58-6.31,5.82a0.7,0.7,0,0,0-.03,1,0.714,0.714,0,0,0,.52.23,0.752,0.752,0,0,0,.49-0.19l6.4-5.91,1.74,1.53a0.736,0.736,0,0,0,.48.18,0.692,0.692,0,0,0,.47-0.18l1.79-1.58,6.37,5.96a0.7,0.7,0,0,0,.49.2,0.744,0.744,0,0,0,.52-0.22,0.7,0.7,0,0,0-.03-1Z" transform="translate(-1660.81 -5644.62)" fill="currentColor" fill-rule="evenodd"/>
</symbol><symbol id="title-dash--long" viewBox="0 0 332.778 8">
  <path d="M864.8,542.382H876a4,4,0,1,1,0,8H864.8A4,4,0,1,1,864.8,542.382Zm-32,0h1.6a4,4,0,1,1,0,8h-1.6A4,4,0,1,1,832.8,542.382Zm62.4,0h262.4a4,4,0,1,1,0,8H895.2A4,4,0,1,1,895.2,542.382Z" transform="translate(-828.812 -542.375)"/>
</symbol><symbol id="title-dash" viewBox="0 0 102.406 4.78">
  <path d="M772,1371.68h76.8a2.4,2.4,0,1,1,0,4.8H772A2.4,2.4,0,0,1,772,1371.68Zm89.6,0h8a2.4,2.4,0,1,1,0,4.8h-8A2.4,2.4,0,0,1,861.6,1371.68Z" transform="translate(-769.594 -1371.69)"/>
</symbol><symbol id="twitter" viewBox="0 0 128 128">
  <path d="M56.771,85.34c-5.303,0-10.463-1.512-14.924-4.373c-0.785-0.504-1.118-1.484-0.801-2.363  c0.316-0.877,1.195-1.412,2.126-1.305c0.599,0.074,1.223,0.109,1.909,0.109c2.14,0,4.205-0.404,6.125-1.189  c-2.447-1.324-4.362-3.561-5.249-6.336c-0.174-0.547-0.104-1.135,0.179-1.619c-2.133-2.029-3.441-4.893-3.441-7.998v-0.111  c0-0.708,0.374-1.362,0.983-1.723c0.032-0.019,0.065-0.037,0.099-0.054c-0.654-1.425-1.006-2.993-1.006-4.612  c0-1.949,0.517-3.867,1.494-5.547c0.33-0.567,0.918-0.937,1.572-0.988c0.648-0.054,1.293,0.223,1.707,0.731  c3.733,4.584,9.043,7.592,14.825,8.465c0.094-6,5.006-10.853,11.03-10.853c2.641,0,5.202,0.958,7.19,2.661  c1.436-0.376,2.813-0.952,4.108-1.717c0.281-0.169,0.607-0.271,0.957-0.283c0.024-0.001,0.031-0.003,0.078-0.001  c1.103,0.002,1.996,0.896,1.996,2c0,0.265-0.052,0.517-0.145,0.748c-0.097,0.289-0.206,0.573-0.326,0.852  c0.461,0.075,0.893,0.311,1.209,0.686c0.574,0.682,0.628,1.659,0.134,2.399c-1.146,1.718-2.536,3.238-4.141,4.532  c0.001,0.066,0.001,0.133,0.001,0.199C84.462,71.262,74.104,85.34,56.771,85.34z M50.834,80.586c1.927,0.498,3.92,0.754,5.937,0.754  c14.83,0,23.691-12.045,23.691-23.689c0-0.362-0.009-0.719-0.025-1.075c-0.025-0.561,0.186-1.101,0.572-1.493  c-0.527-0.212-0.955-0.646-1.148-1.213c-0.165-0.487-0.132-1.001,0.063-1.446c-0.523-0.018-1.026-0.239-1.393-0.63  c-1.323-1.41-3.194-2.219-5.132-2.219c-3.877,0-7.031,3.152-7.031,7.027c0,0.54,0.062,1.08,0.184,1.606  c0.141,0.611-0.013,1.253-0.416,1.734c-0.402,0.481-1.007,0.761-1.633,0.713c-6.64-0.331-12.923-3.063-17.695-7.611  c-0.024,0.239-0.037,0.48-0.037,0.722c0,2.357,1.169,4.545,3.126,5.853c0.742,0.495,1.066,1.422,0.795,2.271  c-0.271,0.848-1.022,1.421-1.963,1.391c-0.474-0.014-0.946-0.059-1.415-0.135c0.909,2.018,2.747,3.557,5.017,4.012  c0.908,0.184,1.571,0.965,1.605,1.889c0.033,0.926-0.572,1.752-1.465,2c-0.382,0.105-0.771,0.191-1.166,0.254  c1.271,1.369,3.068,2.209,5.023,2.242c0.847,0.016,1.592,0.561,1.861,1.363s0.006,1.688-0.66,2.209  C55.504,78.707,53.244,79.873,50.834,80.586z"/>
  <path d="M64.007,114.025c-27.642,0-50.129-22.486-50.129-50.126c0-27.642,22.487-50.129,50.129-50.129s50.129,22.487,50.129,50.129   C114.136,91.539,91.648,114.025,64.007,114.025z M64.007,17.77c-25.436,0-46.129,20.693-46.129,46.129   c0,25.435,20.693,46.126,46.129,46.126s46.129-20.691,46.129-46.126C110.136,38.463,89.442,17.77,64.007,17.77z"/>
</symbol></svg>