<svg xmlns="http://www.w3.org/2000/svg" width="26" height="20" viewBox="0 0 26 20">
  <path d="M1683.27,5644.61h-19.34a3.105,3.105,0,0,0-3.13,3.08v13.03a3.107,3.107,0,0,0,3.13,3.09h19.34a3.107,3.107,0,0,0,3.13-3.09V5647.7A3.114,3.114,0,0,0,1683.27,5644.61Zm1.7,16.11a1.688,1.688,0,0,1-1.7,1.68h-19.34a1.688,1.688,0,0,1-1.7-1.68V5647.7a1.694,1.694,0,0,1,1.7-1.68h19.34a1.694,1.694,0,0,1,1.7,1.68v13.02h0Zm-8.03-6.67,6.27-5.54a0.7,0.7,0,0,0,.05-0.99,0.723,0.723,0,0,0-1.01-.06l-8.64,7.64-1.68-1.48a0.02,0.02,0,0,1-.01-0.02,1.059,1.059,0,0,1-.12-0.1l-6.85-6.04a0.722,0.722,0,0,0-1.01.06,0.689,0.689,0,0,0,.05.99l6.34,5.58-6.31,5.82a0.7,0.7,0,0,0-.03,1,0.714,0.714,0,0,0,.52.23,0.752,0.752,0,0,0,.49-0.19l6.4-5.91,1.74,1.53a0.736,0.736,0,0,0,.48.18,0.692,0.692,0,0,0,.47-0.18l1.79-1.58,6.37,5.96a0.7,0.7,0,0,0,.49.2,0.744,0.744,0,0,0,.52-0.22,0.7,0.7,0,0,0-.03-1Z" transform="translate(-1660.81 -5644.62)" fill="currentColor" fill-rule="evenodd"/>
</svg>
