<svg xmlns="http://www.w3.org/2000/svg" viewBox="0 0 512 512">
  <circle cx="256" cy="256" r="256" fill="#f1c09f"/>
  <path d="M374.705,137.85L114.59,396.964l113.519,113.519C237.271,511.476,246.574,512,256,512
    c135.171,0,245.86-104.765,255.331-237.523L374.705,137.85z" fill="#cc9572"/>
  <path d="M107.744,380.121c0-6.177,2.357-12.354,7.07-17.065l113.778-113.778
    c9.425-9.426,24.707-9.426,34.132,0c9.425,9.425,9.425,24.707,0,34.132L148.945,397.188c-9.425,9.426-24.707,9.426-34.132,0
    C110.101,392.475,107.744,386.298,107.744,380.121z" fill="#263a7a"/>
  <path d="M262.409,248.801L114.552,396.66c0.164,0.172,0.307,0.359,0.478,0.528
    c9.425,9.426,24.707,9.426,34.132,0L262.939,283.41c9.425-9.425,9.425-24.707,0-34.132
    C262.768,249.108,262.584,248.963,262.409,248.801z" fill="#121149"/>
  <circle cx="302.545" cy="209.455" r="85.333" fill="#fff"/>
  <path d="M362.37,148.625L241.714,269.281c15.481,15.739,37.011,25.509,60.83,25.509
    c47.128,0,85.333-38.205,85.333-85.333C387.879,185.635,378.109,164.104,362.37,148.625z" fill="#e5e4e3"/>
  <path d="M200.835,209.455c0-56.082,45.628-101.71,101.71-101.71s101.71,45.628,101.71,101.71
    s-45.628,101.71-101.71,101.71S200.835,265.537,200.835,209.455z M371.502,209.455c0-38.022-30.934-68.956-68.956-68.956
    s-68.956,30.934-68.956,68.956s30.934,68.956,68.956,68.956S371.502,247.477,371.502,209.455z" fill="#366695"/>
  <path d="M373.917,137.078l-23.15,23.15c12.783,12.524,20.735,29.961,20.735,49.226
    c0,38.022-30.934,68.956-68.956,68.956c-19.266,0-36.702-7.952-49.226-20.735l-23.15,23.15
    c18.456,18.713,44.08,30.339,72.376,30.339c56.082,0,101.71-45.628,101.71-101.71C404.256,181.158,392.63,155.534,373.917,137.078z"
    fill="#273b7a"/>
</svg>